<svg
												x="0px"
												y="0px"
												fill="#ffffff"
												viewBox="0 0 480 480"
												xmlns="http://www.w3.org/2000/svg"
											>
												<g>
													<g>
														<path d="M448,305.008V120c0-4.418-3.582-8-8-8s-8,3.582-8,8v192c0,4.418,3.582,8,8,8c8.837,0,16,7.163,16,16v40    c0,8.837-7.163,16-16,16c-4.418,0-8,3.582-8,8v48h-16v-72c0-4.418-3.582-8-8-8s-8,3.582-8,8v88H64v-8c0-4.418-3.582-8-8-8    s-8,3.582-8,8v16c0,4.418,3.582,8,8,8h352c4.418,0,8-3.582,8-8v-8h24c4.418,0,8-3.582,8-8v-49.008    c14.117-3.671,23.978-16.406,24-30.992v-40C471.978,321.414,462.117,308.679,448,305.008z"></path>
													</g>
												</g>
												<g>
													<g>
														<path d="M440,72c-4.418,0-8,3.582-8,8v8c0,4.418,3.582,8,8,8s8-3.582,8-8v-8C448,75.582,444.418,72,440,72z"></path>
													</g>
												</g>
												<g>
													<g>
														<path d="M440,16h-24V8c0-4.418-3.582-8-8-8H56c-4.418,0-8,3.582-8,8v32H32C18.745,40,8,50.745,8,64c0,4.418,3.582,8,8,8    s8-3.582,8-8s3.582-8,8-8h48c4.418,0,8,3.582,8,8s-3.582,8-8,8H40c-4.418,0-8,3.582-8,8s3.582,8,8,8h8v40H32    c-13.255,0-24,10.745-24,24c0,4.418,3.582,8,8,8s8-3.582,8-8s3.582-8,8-8h48c4.418,0,8,3.582,8,8s-3.582,8-8,8H40    c-4.418,0-8,3.582-8,8s3.582,8,8,8h8v40H32c-13.255,0-24,10.745-24,24c0,4.418,3.582,8,8,8s8-3.582,8-8s3.582-8,8-8h48    c4.418,0,8,3.582,8,8s-3.582,8-8,8H40c-4.418,0-8,3.582-8,8s3.582,8,8,8h8v40H32c-13.255,0-24,10.745-24,24c0,4.418,3.582,8,8,8    s8-3.582,8-8s3.582-8,8-8h48c4.418,0,8,3.582,8,8s-3.582,8-8,8H40c-4.418,0-8,3.582-8,8s3.582,8,8,8h8v40H32    c-13.255,0-24,10.745-24,24c0,4.418,3.582,8,8,8s8-3.582,8-8s3.582-8,8-8h48c4.418,0,8,3.582,8,8s-3.582,8-8,8H40    c-4.418,0-8,3.582-8,8s3.582,8,8,8h40c13.255,0,24-10.745,24-24s-10.745-24-24-24H64v-40h16c13.255,0,24-10.745,24-24    s-10.745-24-24-24H64v-40h16c13.255,0,24-10.745,24-24s-10.745-24-24-24H64v-40h16c13.255,0,24-10.745,24-24s-10.745-24-24-24H64    V88h16c13.255,0,24-10.745,24-24S93.255,40,80,40H64V16h336v328c0,4.418,3.582,8,8,8s8-3.582,8-8V32h16v16c0,4.418,3.582,8,8,8    s8-3.582,8-8V24C448,19.582,444.418,16,440,16z"></path>
													</g>
												</g>
												<g>
													<g>
														<path d="M265.768,158.336c16.897-14.231,19.058-39.466,4.826-56.362c-14.231-16.897-39.466-19.058-56.362-4.826    c-16.897,14.231-19.058,39.466-4.826,56.362c1.468,1.743,3.083,3.358,4.826,4.826C195.677,167.953,184.021,187.101,184,208v48    c0,4.418,3.582,8,8,8h64c4.418,0,8-3.582,8-8s-3.582-8-8-8h-56v-40c0-22.091,17.909-40,40-40c22.091,0,40,17.909,40,40v48    c0,4.418,3.582,8,8,8s8-3.582,8-8v-48C295.979,187.101,284.323,167.953,265.768,158.336z M240,152c-13.255,0-24-10.745-24-24    s10.745-24,24-24s24,10.745,24,24S253.255,152,240,152z"></path>
													</g>
												</g>
												<g>
													<g>
														<path d="M240,184c-4.418,0-8,3.582-8,8v32c0,4.418,3.582,8,8,8s8-3.582,8-8v-32C248,187.582,244.418,184,240,184z"></path>
													</g>
												</g>
												<g>
													<g>
														<path d="M192,304h-8c-4.418,0-8,3.582-8,8s3.582,8,8,8h8c4.418,0,8-3.582,8-8S196.418,304,192,304z"></path>
													</g>
												</g>
												<g>
													<g>
														<path d="M328,304H224c-4.418,0-8,3.582-8,8s3.582,8,8,8h104c4.418,0,8-3.582,8-8S332.418,304,328,304z"></path>
													</g>
												</g>
												<g>
													<g>
														<path d="M328,336H152c-4.418,0-8,3.582-8,8s3.582,8,8,8h176c4.418,0,8-3.582,8-8S332.418,336,328,336z"></path>
													</g>
												</g>
												<g>
													<g>
														<path d="M296,368H152c-4.418,0-8,3.582-8,8s3.582,8,8,8h144c4.418,0,8-3.582,8-8S300.418,368,296,368z"></path>
													</g>
												</g>
											</svg>