<svg
												x="0px"
												y="0px"
												fill="#ffffff"
												viewBox="0 0 424.125 424.125"
												xmlns="http://www.w3.org/2000/svg"
											>
												<g>
													<g>
														<path d="M77.655,282.469l-8-8c-3.178-3.07-8.242-2.982-11.312,0.196c-2.995,3.1-2.995,8.016,0,11.116l8,8    c1.5,1.5,3.534,2.344,5.656,2.344c4.418-0.001,7.999-3.583,7.998-8.002C79.997,286.003,79.155,283.969,77.655,282.469z"></path>
													</g>
												</g>
												<g>
													<g>
														<path d="M325.655,354.469l-64-64c-3.124-3.123-8.188-3.123-11.312,0l-34.344,34.344L91.311,200.125l34.344-34.344    c3.123-3.124,3.123-8.188,0-11.312l-56-56c-3.124-3.123-8.188-3.123-11.312,0l-33.376,33.368    c-33.29,33.299-33.29,87.277,0,120.576l9.376,9.368c3.178,3.07,8.242,2.982,11.312-0.196c2.995-3.1,2.995-8.016,0-11.116    l-9.376-9.368c-27.039-27.053-27.039-70.899,0-97.952l3.72-3.712l26.344,26.344c3.178,3.069,8.243,2.981,11.312-0.197    c2.994-3.1,2.994-8.015,0-11.115l-26.344-26.344l12.688-12.688l44.688,44.688l-34.344,34.344c-3.123,3.124-3.123,8.188,0,11.312    l136,136c3.124,3.123,8.188,3.123,11.312,0l10.344-10.344l26.344,26.344c3.178,3.07,8.242,2.982,11.312-0.196    c2.995-3.1,2.995-8.016,0-11.116l-26.344-26.344l12.688-12.688l52.688,52.688l-27.72,27.712    c-27.036,27.044-70.876,27.051-97.92,0.016c-0.005-0.005-0.011-0.011-0.016-0.016l-81.376-81.368    c-3.178-3.07-8.242-2.982-11.312,0.196c-2.994,3.1-2.994,8.015,0,11.116l81.376,81.368c33.279,33.292,87.245,33.302,120.536,0.024    c0.008-0.008,0.016-0.016,0.024-0.024l33.376-33.368C328.778,362.657,328.778,357.593,325.655,354.469z"></path>
													</g>
												</g>
												<g>
													<g>
														<path d="M266.495,158.189c-18.59-18.899-48.981-19.15-67.88-0.56c-0.186,0.183-0.37,0.367-0.552,0.552    c-3.069,3.178-2.981,8.243,0.197,11.312c3.1,2.994,8.015,2.994,11.115,0c12.669-12.069,32.58-12.069,45.248,0    c12.499,12.494,12.503,32.756,0.009,45.255c-0.003,0.003-0.006,0.006-0.009,0.009c-3.123,3.124-3.123,8.188,0,11.312    c3.124,3.123,8.188,3.123,11.312,0C284.834,207.479,285.085,177.088,266.495,158.189z"></path>
													</g>
												</g>
												<g>
													<g>
														<path d="M368.012,56.364c-57.775-57.88-145.873-72.81-219.493-37.199c-3.923,2.033-5.455,6.861-3.423,10.784    c1.953,3.769,6.51,5.357,10.383,3.616c87.495-42.341,192.749-5.737,235.091,81.758c32.667,67.503,18.972,148.291-34.115,201.258    c-3.124,3.125-3.123,8.19,0.002,11.314c1.5,1.499,3.534,2.342,5.654,2.342c2.122,0,4.156-0.844,5.656-2.344    C442.816,252.98,442.925,131.412,368.012,56.364z"></path>
													</g>
												</g>
												<g>
													<g>
														<path d="M126.527,41.285c-2.633-3.548-7.644-4.289-11.192-1.656c-0.07,0.052-0.14,0.106-0.208,0.16v-0.016    c-6.651,5.113-12.963,10.652-18.896,16.584c-3.126,3.124-3.128,8.19-0.004,11.316c3.124,3.126,8.19,3.128,11.316,0.004    c5.443-5.434,11.231-10.512,17.328-15.2C128.419,49.844,129.161,44.833,126.527,41.285z"></path>
													</g>
												</g>
												<g>
													<g>
														<path d="M355.641,249.119c-3.844-1.978-8.564-0.544-10.658,3.238c-5.959,11.147-13.534,21.351-22.48,30.28    c-3.124,3.125-3.123,8.19,0.002,11.314c1.502,1.501,3.539,2.344,5.662,2.342c2.122,0,4.156-0.844,5.656-2.344    c10.057-10.044,18.574-21.52,25.272-34.056C361.117,255.964,359.57,251.141,355.641,249.119z"></path>
													</g>
												</g>
												<g>
													<g>
														<path d="M265.917,52.148c-48.804-11.82-100.242,2.638-135.741,38.153c-3.123,3.124-3.123,8.188,0,11.312    c3.122,3.126,8.188,3.129,11.314,0.006c0.002-0.002,0.004-0.004,0.006-0.006c49.97-50.004,131.015-50.031,181.019-0.061    c31.585,31.564,44.438,77.306,33.917,120.701c-1.196,4.253,1.282,8.671,5.535,9.867c4.253,1.196,8.671-1.282,9.867-5.535    c0.055-0.194,0.102-0.391,0.142-0.589C390.695,148.703,343.211,70.868,265.917,52.148z"></path>
													</g>
												</g>
												<g>
													<g>
														<path d="M299.794,124.161c-9.366-9.354-20.563-16.671-32.89-21.492c-4.118-1.604-8.756,0.434-10.36,4.552    c-1.604,4.118,0.434,8.756,4.552,10.36c41.17,16.108,61.487,62.541,45.379,103.712c-4.018,10.269-10.114,19.598-17.907,27.4    c-3.123,3.124-3.123,8.188,0,11.312c3.124,3.123,8.188,3.123,11.312,0C337.368,222.469,337.329,161.65,299.794,124.161z"></path>
													</g>
												</g>
												<g>
													<g>
														<path d="M231.999,96.125c-25.475-0.071-49.918,10.055-67.88,28.12c-3.178,3.069-3.266,8.134-0.197,11.312    c3.069,3.178,8.134,3.266,11.312,0.197c0.067-0.064,0.132-0.13,0.197-0.197c14.969-15.054,35.339-23.492,56.568-23.432    c4.418,0,8-3.582,8-8S236.417,96.125,231.999,96.125z"></path>
													</g>
												</g>
											</svg>