<svg
												x="0px"
												y="0px"
												fill="#ffffff"
												viewBox="0 0 480 480"
												xmlns="http://www.w3.org/2000/svg"
											>
												<g>
													<g>
														<path d="M472,384h-32v-64c0-4.418-3.582-8-8-8s-8,3.582-8,8v64H248V208h56v56c0,4.418,3.582,8,8,8h48c4.418,0,8-3.582,8-8v-56h56    v80c0,4.418,3.582,8,8,8s8-3.582,8-8v-88c0-4.418-3.582-8-8-8h-88V8c0-4.418-3.582-8-8-8H144c-4.418,0-8,3.582-8,8v72    c0,4.418,3.582,8,8,8s8-3.582,8-8V16h56v56c0,4.418,3.582,8,8,8h48c4.418,0,8-3.582,8-8V16h56v176H152v-80c0-4.418-3.582-8-8-8    s-8,3.582-8,8v80H96c-4.418,0-8,3.582-8,8s3.582,8,8,8h16v56c0,4.418,3.582,8,8,8h48c4.418,0,8-3.582,8-8v-56h56v176H56V208h8    c4.418,0,8-3.582,8-8s-3.582-8-8-8H48c-4.418,0-8,3.582-8,8v184H8c-4.418,0-8,3.582-8,8v80c0,4.418,3.582,8,8,8h48    c4.418,0,8-3.582,8-8v-40h144v40c0,4.418,3.582,8,8,8h48c4.418,0,8-3.582,8-8v-40h56c4.418,0,8-3.582,8-8s-3.582-8-8-8H16v-16h448    v16h-64c-4.418,0-8,3.582-8,8s3.582,8,8,8h16v40c0,4.418,3.582,8,8,8h48c4.418,0,8-3.582,8-8v-80C480,387.582,476.418,384,472,384    z M256,64h-32V16h32V64z M320,208h16h16v48h-32V208z M160,256h-32v-48h32V256z M224,432h32v32h-32V432z M48,432v32H16v-32H48z     M464,464h-32v-32h32V464z"></path>
													</g>
												</g>
												<g>
													<g>
														<path d="M304,344c-4.418,0-8,3.582-8,8v8c0,4.418,3.582,8,8,8s8-3.582,8-8v-8C312,347.582,308.418,344,304,344z"></path>
													</g>
												</g>
												<g>
													<g>
														<path d="M272,344c-4.418,0-8,3.582-8,8v8c0,4.418,3.582,8,8,8s8-3.582,8-8v-8C280,347.582,276.418,344,272,344z"></path>
													</g>
												</g>
												<g>
													<g>
														<path d="M112,344c-4.418,0-8,3.582-8,8v8c0,4.418,3.582,8,8,8s8-3.582,8-8v-8C120,347.582,116.418,344,112,344z"></path>
													</g>
												</g>
												<g>
													<g>
														<path d="M80,344c-4.418,0-8,3.582-8,8v8c0,4.418,3.582,8,8,8s8-3.582,8-8v-8C88,347.582,84.418,344,80,344z"></path>
													</g>
												</g>
												<g>
													<g>
														<path d="M208,152c-4.418,0-8,3.582-8,8v8c0,4.418,3.582,8,8,8s8-3.582,8-8v-8C216,155.582,212.418,152,208,152z"></path>
													</g>
												</g>
												<g>
													<g>
														<path d="M176,152c-4.418,0-8,3.582-8,8v8c0,4.418,3.582,8,8,8s8-3.582,8-8v-8C184,155.582,180.418,152,176,152z"></path>
													</g>
												</g>
												<g>
													<g>
														<path d="M368,416h-8c-4.418,0-8,3.582-8,8s3.582,8,8,8h8c4.418,0,8-3.582,8-8S372.418,416,368,416z"></path>
													</g>
												</g>
											</svg>