<svg
												x="0px"
												y="0px"
												fill="#ffffff"
												viewBox="0 0 480 480"
												xmlns="http://www.w3.org/2000/svg"
											>
												<g>
													<g>
														<path d="M96,312c-4.418,0-8,3.582-8,8v32c0,4.418,3.582,8,8,8s8-3.582,8-8v-32C104,315.582,100.418,312,96,312z"></path>
													</g>
												</g>
												<g>
													<g>
														<path d="M128,328c-4.418,0-8,3.582-8,8v32c0,4.418,3.582,8,8,8c4.418,0,8-3.582,8-8v-32C136,331.582,132.418,328,128,328z"></path>
													</g>
												</g>
												<g>
													<g>
														<path d="M288.496,68c-2.37-3.729-7.315-4.83-11.043-2.459c-3.508,2.23-4.724,6.776-2.797,10.459    c11.002,19.111,4.428,43.522-14.684,54.524c-19.111,11.002-43.523,4.428-54.524-14.684c-11.002-19.111-4.428-43.522,14.684-54.524    c10.091-5.809,22.215-6.924,33.196-3.052c4.226,1.288,8.697-1.093,9.985-5.319c1.207-3.96-0.806-8.187-4.641-9.745    c-29.158-10.312-61.155,4.965-71.467,34.123s4.965,61.155,34.123,71.467c29.158,10.312,61.155-4.965,71.467-34.123    C294.916,108.672,296,102.359,296,96C296.002,86.169,293.414,76.512,288.496,68z"></path>
													</g>
												</g>
												<g>
													<g>
														<path d="M423.912,159.304c-0.016-0.232-0.056-0.464-0.096-0.704c-0.147-0.918-0.453-1.803-0.904-2.616v-0.056    c0-0.056-0.096-0.088-0.128-0.144c-0.472-0.733-1.061-1.385-1.744-1.928c-0.164-0.145-0.334-0.281-0.512-0.408    c-0.152-0.104-0.272-0.24-0.432-0.336l-84.376-49.848c0.176-2.4,0.28-4.8,0.28-7.264c0-53.019-42.981-96-96-96s-96,42.981-96,96    c0,2.4,0.104,4.864,0.28,7.264l-84.352,49.848c-2.435,1.44-3.929,4.059-3.928,6.888v208c-0.001,2.829,1.493,5.448,3.928,6.888    l176,104c0.211,0.102,0.427,0.193,0.648,0.272c0.218,0.109,0.443,0.205,0.672,0.288c1.761,0.736,3.743,0.736,5.504,0    c0.232-0.083,0.459-0.179,0.68-0.288c0.208-0.096,0.432-0.152,0.64-0.272l176-104c2.435-1.44,3.929-4.059,3.928-6.888V160    C424,159.76,423.928,159.536,423.912,159.304z M400.272,160l-41.6,24.584L316,159.376c7.698-12.065,13.425-25.278,16.968-39.144    L400.272,160z M309.304,232.328l41.328-24.424v53.416l-41.328,24.424V232.328z M301.344,218.464l-23.648-13.976    c10.677-9.731,20.452-20.406,29.208-31.896l36.04,21.288L301.344,218.464z M240,16c44.163,0.049,79.952,35.837,80,80    c0,57.864-62.808,106.176-80,118.32c-17.192-12.144-80-60.456-80-118.32C160.049,51.837,195.837,16.049,240,16z M408,363.44    l-160,94.544V432c0-4.418-3.582-8-8-8s-8,3.582-8,8v25.984L72,363.44V164.56l75.024-44.328c15.4,63.144,85.352,108.4,88.68,110.52    c2.621,1.668,5.971,1.668,8.592,0c7.143-4.692,14.028-9.766,20.624-15.2l20.68,12.208L240,254.712l-144.848-85.6    c-3.804-2.249-8.711-0.988-10.96,2.816s-0.988,8.711,2.816,10.96L232,268.568V400c0,4.418,3.582,8,8,8s8-3.582,8-8V268.568    l45.336-26.792v57.992c-0.001,4.418,3.58,8.001,7.998,8.002c1.433,0,2.84-0.384,4.074-1.114l57.328-33.856    c2.438-1.441,3.931-4.064,3.928-6.896v-67.456L408,174.024V363.44z"></path>
													</g>
												</g>
											</svg>