<svg id="visual" viewBox="0 0 900 600" width="900" height="600" xmlns="http://www.w3.org/2000/svg" xmlns:xlink="http://www.w3.org/1999/xlink" version="1.1"><rect x="0" y="0" width="900" height="600" fill="#111"></rect><defs><linearGradient id="grad1_0" x1="33.3%" y1="0%" x2="100%" y2="100%"><stop offset="20%" stop-color="#111111" stop-opacity="1"></stop><stop offset="80%" stop-color="#111111" stop-opacity="1"></stop></linearGradient></defs><defs><linearGradient id="grad2_0" x1="0%" y1="0%" x2="66.7%" y2="100%"><stop offset="20%" stop-color="#111111" stop-opacity="1"></stop><stop offset="80%" stop-color="#111111" stop-opacity="1"></stop></linearGradient></defs><g transform="translate(900, 0)"><path d="M0 486.7C-70.9 487.7 -141.8 488.7 -186.3 449.7C-230.8 410.7 -248.9 331.6 -280 280C-311.1 228.4 -355.1 204.3 -391.7 162.3C-428.3 120.2 -457.5 60.1 -486.7 0L0 0Z" fill="#000"></path></g><g transform="translate(0, 600)"><path d="M0 -486.7C70.8 -486.9 141.6 -487.1 186.3 -449.7C230.9 -412.2 249.3 -337.1 289.2 -289.2C329.1 -241.3 390.3 -220.5 426.8 -176.8C463.3 -133.1 475 -66.6 486.7 0L0 0Z" fill="#000"></path></g></svg>