<svg id="visual" viewBox="0 0 960 540" width="960" height="540" xmlns="http://www.w3.org/2000/svg" xmlns:xlink="http://www.w3.org/1999/xlink" version="1.1"><rect x="0" y="0" width="960" height="540" fill="#720004"></rect><defs><linearGradient id="grad1_0" x1="43.8%" y1="0%" x2="100%" y2="100%"><stop offset="14.444444444444446%" stop-color="#720004" stop-opacity="1"></stop><stop offset="85.55555555555554%" stop-color="#720004" stop-opacity="1"></stop></linearGradient></defs><defs><linearGradient id="grad2_0" x1="0%" y1="0%" x2="56.3%" y2="100%"><stop offset="14.444444444444446%" stop-color="#720004" stop-opacity="1"></stop><stop offset="85.55555555555554%" stop-color="#720004" stop-opacity="1"></stop></linearGradient></defs><g transform="translate(960, 0)"><path d="M0 486C-68.8 485.6 -137.7 485.1 -186 449C-234.3 412.9 -262.1 341.1 -287.1 287.1C-312 233.1 -334.1 196.8 -366.8 151.9C-399.5 107 -442.7 53.5 -486 0L0 0Z" fill="#4e0104"></path></g><g transform="translate(0, 540)"><path d="M0 -486C63 -479.4 125.9 -472.8 186 -449C246 -425.2 303.2 -384.2 331.6 -331.6C360 -279 359.7 -214.9 380.6 -157.7C401.6 -100.5 443.8 -50.2 486 0L0 0Z" fill="#4e0104"></path></g></svg>