<svg id="visual" viewBox="0 0 960 540" width="960" height="540" xmlns="http://www.w3.org/2000/svg" xmlns:xlink="http://www.w3.org/1999/xlink" version="1.1"><rect x="0" y="0" width="960" height="540" fill="#4e0104"></rect><defs><linearGradient id="grad1_0" x1="43.8%" y1="0%" x2="100%" y2="100%"><stop offset="14.444444444444446%" stop-color="#4e0104" stop-opacity="1"></stop><stop offset="85.55555555555554%" stop-color="#4e0104" stop-opacity="1"></stop></linearGradient></defs><defs><linearGradient id="grad2_0" x1="0%" y1="0%" x2="56.3%" y2="100%"><stop offset="14.444444444444446%" stop-color="#4e0104" stop-opacity="1"></stop><stop offset="85.55555555555554%" stop-color="#4e0104" stop-opacity="1"></stop></linearGradient></defs><g transform="translate(960, 0)"><path d="M0 243C-14 214.8 -27.9 186.5 -49.7 185.5C-71.4 184.4 -101 210.6 -121.5 210.4C-142 210.3 -153.5 184 -159.1 159.1C-164.7 134.2 -164.4 110.8 -157.6 91C-150.8 71.2 -137.5 54.9 -150.7 40.4C-163.8 25.8 -203.4 12.9 -243 0L0 0Z" fill="#720004"></path></g><g transform="translate(0, 540)"><path d="M0 -243C25.2 -249.8 50.5 -256.5 62.9 -234.7C75.3 -212.9 74.9 -162.5 81.5 -141.2C88.1 -119.8 101.6 -127.4 130.8 -130.8C160.1 -134.2 205.1 -133.4 197.5 -114C189.8 -94.6 129.6 -56.5 128.5 -34.4C127.3 -12.3 185.1 -6.2 243 0L0 0Z" fill="#720004"></path></g></svg>