<?xml version="1.0" encoding="UTF-8"?>
<svg xmlns="http://www.w3.org/2000/svg" xmlns:xlink="http://www.w3.org/1999/xlink" width="173px" height="62px" viewBox="0 0 173 62" version="1.1">
  <title>Group</title>
  <g id="Page-1" stroke="none" stroke-width="1" fill="none" fill-rule="evenodd">
    <g id="Group" transform="translate(0.000000, 0.000000)" fill="#D81F27" fill-rule="nonzero">
      <path d="M77.6864865,56.0472268 C77.5891892,55.0914333 77.5243243,53.7792422 77.5243243,52.175453 L77.5243243,42.1153213 C77.5243243,38.6323449 77.0378378,35.7811642 76.0972973,33.6589786 C75.3351351,31.9579901 74.1675676,30.6943987 72.5945946,29.8520044 C75.8216216,27.8270181 77.4432432,24.0362438 77.4432432,18.5606809 L77.4432432,15.0453048 C77.4432432,10.3635365 76.2918919,6.79956068 73.9891892,4.49917628 C71.7027027,2.18259198 68.0702703,1 63.2216216,1 L49,1 L49,60 L59.7675676,60 L59.7675676,35.4733663 L62.0054054,35.4733663 C63.7891892,35.4733663 65.0378378,35.8945634 65.7027027,36.7045579 C66.1891892,37.3039539 66.772973,38.6485448 66.772973,41.6293245 L66.772973,52.0944536 C66.772973,54.2814388 66.8216216,55.7718287 66.9513514,56.6304228 C67.0648649,57.5052169 67.3081081,58.4448105 67.6486486,59.416804 L67.8594595,60 L79,60 L78.4486486,58.7688083 C78.027027,57.8778144 77.7837838,56.9544206 77.6864865,56.0472268 M59.7675676,10.9467326 L62.9783784,10.9467326 C64.2918919,10.9467326 65.2,11.2869303 65.7675676,11.9997254 C66.3675676,12.7611203 66.6756757,14.0895113 66.6756757,15.9524986 L66.6756757,20.3750686 C66.6756757,22.3028556 66.3027027,23.6636463 65.572973,24.4250412 C64.8432432,25.1702361 63.6918919,25.5428336 62.1513514,25.5428336 L59.7675676,25.5428336 L59.7675676,10.9467326 Z" id="Shape"></path>
      <path d="M91.6351551,1 L82,60 L92.1713442,60 L93.8124077,48.8058759 L102.553914,48.8058759 L104.17873,60 L115,60 L105.348597,1 L91.6351551,1 Z M101.205318,39.2803405 L95.11226,39.2803405 L98.1344165,17.6210873 L101.205318,39.2803405 Z" id="Shape"></path>
      <polygon id="Path" points="126.90895 40.2199341 121.760993 1 111 1 119.836524 60 133.147439 60 142 1 132.056906 1"></polygon>
      <path d="M169.124722,4.12560128 C166.535635,1.39176911 162.793987,0 158,0 C153.206013,0 149.464365,1.39176911 146.875278,4.12560128 C144.302895,6.84286478 143,10.7199359 143,15.6076964 L143,46.3923036 C143,51.2966328 144.302895,55.1571352 146.875278,57.8743987 C149.464365,60.6082309 153.206013,62 158,62 C162.793987,62 166.535635,60.6082309 169.124722,57.8743987 C171.697105,55.1571352 173,51.2800641 173,46.3923036 L173,15.6242651 C172.983296,10.7199359 171.680401,6.85943346 169.124722,4.12560128 M161.891982,46.9722074 C161.891982,49.2421165 161.44098,51.8433993 158,51.8433993 C154.542316,51.8433993 154.108018,49.2421165 154.108018,46.9722074 L154.108018,15.0277926 C154.108018,12.7578835 154.55902,10.1566007 158,10.1566007 C161.457684,10.1566007 161.891982,12.7578835 161.891982,15.0277926 L161.891982,46.9722074 Z" id="Shape"></path>
      <path d="M45.8294436,46.0705785 C44.5180674,53.9415998 37.5129946,60 29.1467466,60 L0.0474750892,60 L0.0474750892,38.9670634 L0.0474750892,31.2103515 L0.0474750892,24.7437033 C0.545466044,24.8743427 1.0600567,24.9886521 1.57464735,25.1029615 C3.00222142,25.3805702 4.46299489,25.5275394 5.95696776,25.5275394 C8.99471258,25.5275394 11.8996598,24.9233324 14.5556116,23.8455577 C17.3277612,22.7187932 19.817716,21.0694714 21.8760786,19.0445613 L21.8760786,19.0445613 C22.2578717,18.6853031 22.6064654,18.3097149 22.9384593,17.9341268 L22.9384593,24.4171049 L28.847952,24.4171049 L28.847952,6.71547191 L11.451468,6.71547191 L10.8206794,6.71547191 L10.8206794,12.5289233 L17.1451646,12.5289233 L17.1285649,12.5452533 C16.8629697,12.8555217 16.5641751,13.1657902 16.2321811,13.4923886 L16.2321811,13.4923886 C15.5515935,14.1619153 14.8046071,14.7661223 14.0244212,15.2886798 C13.2442354,15.8112372 12.3976508,16.252145 11.5178668,16.6114033 C10.6712821,16.9543316 9.75829872,17.2319402 8.7955162,17.4115693 C7.88253278,17.5911985 6.91975027,17.689178 5.94036806,17.689178 C-0.782509836,17.689178 0.0308753907,13.4433988 0.0308753907,11.8757265 L0.0308753907,1 L26.4907948,1 C34.9566411,1 41.8621156,7.79324661 41.8621156,16.1051758 C41.8621156,20.8735123 39.5713572,25.1519513 36.0190218,27.9280376 C35.8198254,27.9280376 35.6040293,27.9117077 35.3882332,27.9117077 C32.3504884,27.9117077 29.4455411,28.5159148 26.7729897,29.5936895 C24.00084,30.7204539 21.5108853,32.3697758 19.4525226,34.3946859 C18.9711314,34.8682535 18.4897401,35.374481 18.0249486,35.9296983 C17.5933564,36.4522557 17.1617643,37.007473 16.7633715,37.5790202 C16.6471736,37.7423194 16.5475754,37.8892887 16.4313775,38.0689178 L16.4313775,32.2391365 L10.5218848,32.2391365 L10.5218848,49.9407694 L27.9017692,49.9407694 L28.5325577,49.9407694 L28.5325577,44.127318 L22.1250741,44.127318 C22.3076708,43.71907 22.5068672,43.3598118 22.7060636,43.0005536 C22.9218596,42.6249654 23.1542554,42.2493772 23.4032509,41.9064489 C23.6356467,41.5798505 23.9012418,41.2369222 24.2000364,40.8939939 C24.498831,40.5510656 24.7976256,40.2244672 25.0798204,39.9468586 L25.0964201,39.9468586 C25.7936075,39.2610019 26.5239942,38.6567949 27.30418,38.1505674 C28.0843659,37.62801 28.9309505,37.1871021 29.8107345,36.8278439 C30.6573191,36.4849156 31.5703026,36.2073069 32.5330851,36.0276778 C33.4460685,35.8480487 34.408851,35.7500692 35.3882332,35.7500692 C36.3676154,35.7500692 37.3303979,35.8480487 38.2433814,36.0276778 C44.1860734,37.1707722 46.7092276,40.7796845 45.8294436,46.0705785" id="Path"></path>
    </g>
  </g>
</svg>
